<svg xmlns="http://www.w3.org/2000/svg" xmlns:xlink="http://www.w3.org/1999/xlink" width="200" height="16" shape-rendering="crispEdges"> 
<rect x="0.0" width="7.6923076923077" height="16" fill="rgb(92, 97, 102)"></rect> 
<rect x="7.6923076923077" width="7.6923076923077" height="16" fill="rgb(28, 124, 156)"></rect> 
<rect x="15.384615384615" width="7.6923076923077" height="16" fill="rgb(134, 179, 0)"></rect> 
<rect x="23.076923076923" width="7.6923076923077" height="16" fill="rgb(3, 109, 214)"></rect> 
<rect x="30.769230769231" width="7.6923076923077" height="16" fill="rgb(119, 119, 119)"></rect> 
<rect x="38.461538461538" width="7.6923076923077" height="16" fill="rgb(120, 123, 128)"></rect> 
<rect x="46.153846153846" width="7.6923076923077" height="16" fill="rgb(124, 129, 134)"></rect> 
<rect x="53.846153846154" width="7.6923076923077" height="16" fill="rgb(114, 184, 134)"></rect> 
<rect x="61.538461538462" width="7.6923076923077" height="16" fill="rgb(138, 145, 153)"></rect> 
<rect x="69.230769230769" width="7.6923076923077" height="16" fill="rgb(250, 141, 62)"></rect> 
<rect x="76.923076923077" width="7.6923076923077" height="16" fill="rgb(255, 102, 102)"></rect> 
<rect x="84.615384615385" width="7.6923076923077" height="16" fill="rgb(240, 113, 113)"></rect> 
<rect x="92.307692307692" width="7.6923076923077" height="16" fill="rgb(255, 170, 51)"></rect> 
<rect x="100.0" width="7.6923076923077" height="16" fill="rgb(85, 180, 212)"></rect> 
<rect x="107.69230769231" width="7.6923076923077" height="16" fill="rgb(237, 147, 102)"></rect> 
<rect x="115.38461538462" width="7.6923076923077" height="16" fill="rgb(242, 174, 73)"></rect> 
<rect x="123.07692307692" width="7.6923076923077" height="16" fill="rgb(255, 119, 119)"></rect> 
<rect x="130.76923076923" width="7.6923076923077" height="16" fill="rgb(255, 169, 77)"></rect> 
<rect x="138.46153846154" width="7.6923076923077" height="16" fill="rgb(188, 188, 188)"></rect> 
<rect x="146.15384615385" width="7.6923076923077" height="16" fill="rgb(188, 193, 198)"></rect> 
<rect x="153.84615384615" width="7.6923076923077" height="16" fill="rgb(204, 204, 204)"></rect> 
<rect x="161.53846153846" width="7.6923076923077" height="16" fill="rgb(147, 221, 250)"></rect> 
<rect x="169.23076923077" width="7.6923076923077" height="16" fill="rgb(220, 220, 220)"></rect> 
<rect x="176.92307692308" width="7.6923076923077" height="16" fill="rgb(236, 236, 236)"></rect> 
<rect x="184.61538461538" width="7.6923076923077" height="16" fill="rgb(252, 252, 252)"></rect> 
<rect x="192.30769230769" width="7.6923076923077" height="16" fill="rgb(255, 255, 255)"></rect> 
</svg>