<svg xmlns="http://www.w3.org/2000/svg" xmlns:xlink="http://www.w3.org/1999/xlink" width="200" height="16" shape-rendering="crispEdges"> 
<rect x="0.0" width="7.6923076923077" height="16" fill="rgb(0, 0, 0)"></rect> 
<rect x="7.6923076923077" width="7.6923076923077" height="16" fill="rgb(0, 71, 0)"></rect> 
<rect x="15.384615384615" width="7.6923076923077" height="16" fill="rgb(8, 110, 35)"></rect> 
<rect x="23.076923076923" width="7.6923076923077" height="16" fill="rgb(0, 194, 39)"></rect> 
<rect x="30.769230769231" width="7.6923076923077" height="16" fill="rgb(2, 232, 6)"></rect> 
<rect x="38.461538461538" width="7.6923076923077" height="16" fill="rgb(2, 207, 33)"></rect> 
<rect x="46.153846153846" width="7.6923076923077" height="16" fill="rgb(0, 237, 24)"></rect> 
<rect x="53.846153846154" width="7.6923076923077" height="16" fill="rgb(0, 255, 26)"></rect> 
<rect x="61.538461538462" width="7.6923076923077" height="16" fill="rgb(0, 255, 30)"></rect> 
<rect x="69.230769230769" width="7.6923076923077" height="16" fill="rgb(0, 242, 48)"></rect> 
<rect x="76.923076923077" width="7.6923076923077" height="16" fill="rgb(28, 124, 156)"></rect> 
<rect x="84.615384615385" width="7.6923076923077" height="16" fill="rgb(17, 189, 103)"></rect> 
<rect x="92.307692307692" width="7.6923076923077" height="16" fill="rgb(150, 106, 59)"></rect> 
<rect x="100.0" width="7.6923076923077" height="16" fill="rgb(255, 51, 51)"></rect> 
<rect x="107.69230769231" width="7.6923076923077" height="16" fill="rgb(36, 237, 96)"></rect> 
<rect x="115.38461538462" width="7.6923076923077" height="16" fill="rgb(131, 131, 143)"></rect> 
<rect x="123.07692307692" width="7.6923076923077" height="16" fill="rgb(114, 184, 134)"></rect> 
<rect x="130.76923076923" width="7.6923076923077" height="16" fill="rgb(139, 148, 158)"></rect> 
<rect x="138.46153846154" width="7.6923076923077" height="16" fill="rgb(255, 202, 10)"></rect> 
<rect x="146.15384615385" width="7.6923076923077" height="16" fill="rgb(255, 79, 144)"></rect> 
<rect x="153.84615384615" width="7.6923076923077" height="16" fill="rgb(18, 215, 255)"></rect> 
<rect x="161.53846153846" width="7.6923076923077" height="16" fill="rgb(43, 223, 255)"></rect> 
<rect x="169.23076923077" width="7.6923076923077" height="16" fill="rgb(255, 87, 182)"></rect> 
<rect x="176.92307692308" width="7.6923076923077" height="16" fill="rgb(51, 255, 231)"></rect> 
<rect x="184.61538461538" width="7.6923076923077" height="16" fill="rgb(163, 211, 252)"></rect> 
<rect x="192.30769230769" width="7.6923076923077" height="16" fill="rgb(255, 255, 255)"></rect> 
</svg>