<svg xmlns="http://www.w3.org/2000/svg" xmlns:xlink="http://www.w3.org/1999/xlink" width="200" height="16" shape-rendering="crispEdges"> 
<rect x="0.0" width="10.0" height="16" fill="rgb(29, 34, 39)"></rect> 
<rect x="10.0" width="10.0" height="16" fill="rgb(36, 34, 35)"></rect> 
<rect x="20.0" width="10.0" height="16" fill="rgb(48, 56, 65)"></rect> 
<rect x="30.0" width="10.0" height="16" fill="rgb(68, 75, 83)"></rect> 
<rect x="40.0" width="10.0" height="16" fill="rgb(76, 88, 99)"></rect> 
<rect x="50.0" width="10.0" height="16" fill="rgb(105, 111, 117)"></rect> 
<rect x="60.0" width="10.0" height="16" fill="rgb(194, 103, 79)"></rect> 
<rect x="70.0" width="10.0" height="16" fill="rgb(231, 85, 80)"></rect> 
<rect x="80.0" width="10.0" height="16" fill="rgb(147, 157, 93)"></rect> 
<rect x="90.0" width="10.0" height="16" fill="rgb(132, 139, 149)"></rect> 
<rect x="100.0" width="10.0" height="16" fill="rgb(229, 94, 102)"></rect> 
<rect x="110.0" width="10.0" height="16" fill="rgb(102, 153, 202)"></rect> 
<rect x="120.0" width="10.0" height="16" fill="rgb(239, 97, 121)"></rect> 
<rect x="130.0" width="10.0" height="16" fill="rgb(158, 161, 145)"></rect> 
<rect x="140.0" width="10.0" height="16" fill="rgb(166, 172, 185)"></rect> 
<rect x="150.0" width="10.0" height="16" fill="rgb(97, 239, 206)"></rect> 
<rect x="160.0" width="10.0" height="16" fill="rgb(255, 209, 82)"></rect> 
<rect x="170.0" width="10.0" height="16" fill="rgb(191, 197, 208)"></rect> 
<rect x="180.0" width="10.0" height="16" fill="rgb(215, 221, 233)"></rect> 
<rect x="190.0" width="10.0" height="16" fill="rgb(216, 222, 233)"></rect> 
</svg>