<svg xmlns="http://www.w3.org/2000/svg" xmlns:xlink="http://www.w3.org/1999/xlink" width="200" height="16" shape-rendering="crispEdges"> 
<rect x="0.0" width="7.4074074074074" height="16" fill="rgb(30, 30, 30)"></rect> 
<rect x="7.4074074074074" width="7.4074074074074" height="16" fill="rgb(30, 31, 34)"></rect> 
<rect x="14.814814814815" width="7.4074074074074" height="16" fill="rgb(51, 58, 74)"></rect> 
<rect x="22.222222222222" width="7.4074074074074" height="16" fill="rgb(47, 67, 84)"></rect> 
<rect x="29.62962962963" width="7.4074074074074" height="16" fill="rgb(64, 74, 84)"></rect> 
<rect x="37.037037037037" width="7.4074074074074" height="16" fill="rgb(75, 75, 82)"></rect> 
<rect x="44.444444444444" width="7.4074074074074" height="16" fill="rgb(255, 0, 0)"></rect> 
<rect x="51.851851851852" width="7.4074074074074" height="16" fill="rgb(82, 91, 100)"></rect> 
<rect x="59.259259259259" width="7.4074074074074" height="16" fill="rgb(255, 51, 51)"></rect> 
<rect x="66.666666666667" width="7.4074074074074" height="16" fill="rgb(118, 118, 130)"></rect> 
<rect x="74.074074074074" width="7.4074074074074" height="16" fill="rgb(131, 131, 143)"></rect> 
<rect x="81.481481481481" width="7.4074074074074" height="16" fill="rgb(114, 184, 134)"></rect> 
<rect x="88.888888888889" width="7.4074074074074" height="16" fill="rgb(145, 145, 145)"></rect> 
<rect x="96.296296296296" width="7.4074074074074" height="16" fill="rgb(148, 148, 148)"></rect> 
<rect x="103.7037037037" width="7.4074074074074" height="16" fill="rgb(139, 148, 158)"></rect> 
<rect x="111.11111111111" width="7.4074074074074" height="16" fill="rgb(224, 211, 22)"></rect> 
<rect x="118.51851851852" width="7.4074074074074" height="16" fill="rgb(255, 202, 10)"></rect> 
<rect x="125.92592592593" width="7.4074074074074" height="16" fill="rgb(255, 79, 144)"></rect> 
<rect x="133.33333333333" width="7.4074074074074" height="16" fill="rgb(18, 215, 255)"></rect> 
<rect x="140.74074074074" width="7.4074074074074" height="16" fill="rgb(245, 231, 40)"></rect> 
<rect x="148.14814814815" width="7.4074074074074" height="16" fill="rgb(43, 223, 255)"></rect> 
<rect x="155.55555555556" width="7.4074074074074" height="16" fill="rgb(255, 87, 182)"></rect> 
<rect x="162.96296296296" width="7.4074074074074" height="16" fill="rgb(179, 179, 179)"></rect> 
<rect x="170.37037037037" width="7.4074074074074" height="16" fill="rgb(51, 255, 231)"></rect> 
<rect x="177.77777777778" width="7.4074074074074" height="16" fill="rgb(147, 221, 250)"></rect> 
<rect x="185.18518518519" width="7.4074074074074" height="16" fill="rgb(163, 211, 252)"></rect> 
<rect x="192.59259259259" width="7.4074074074074" height="16" fill="rgb(255, 255, 255)"></rect> 
</svg>