<svg xmlns="http://www.w3.org/2000/svg" xmlns:xlink="http://www.w3.org/1999/xlink" width="200" height="16" shape-rendering="crispEdges"> 
<rect x="0.0" width="10.0" height="16" fill="rgb(24, 26, 31)"></rect> 
<rect x="10.0" width="10.0" height="16" fill="rgb(33, 37, 43)"></rect> 
<rect x="20.0" width="10.0" height="16" fill="rgb(40, 44, 52)"></rect> 
<rect x="30.0" width="10.0" height="16" fill="rgb(44, 51, 62)"></rect> 
<rect x="40.0" width="10.0" height="16" fill="rgb(56, 61, 73)"></rect> 
<rect x="50.0" width="10.0" height="16" fill="rgb(83, 87, 110)"></rect> 
<rect x="60.0" width="10.0" height="16" fill="rgb(79, 88, 115)"></rect> 
<rect x="70.0" width="10.0" height="16" fill="rgb(95, 105, 122)"></rect> 
<rect x="80.0" width="10.0" height="16" fill="rgb(102, 107, 118)"></rect> 
<rect x="90.0" width="10.0" height="16" fill="rgb(48, 96, 193)"></rect> 
<rect x="100.0" width="10.0" height="16" fill="rgb(235, 103, 114)"></rect> 
<rect x="110.0" width="10.0" height="16" fill="rgb(86, 182, 194)"></rect> 
<rect x="120.0" width="10.0" height="16" fill="rgb(219, 157, 99)"></rect> 
<rect x="130.0" width="10.0" height="16" fill="rgb(154, 204, 118)"></rect> 
<rect x="140.0" width="10.0" height="16" fill="rgb(82, 139, 255)"></rect> 
<rect x="150.0" width="10.0" height="16" fill="rgb(92, 179, 250)"></rect> 
<rect x="160.0" width="10.0" height="16" fill="rgb(171, 178, 191)"></rect> 
<rect x="170.0" width="10.0" height="16" fill="rgb(230, 192, 123)"></rect> 
<rect x="180.0" width="10.0" height="16" fill="rgb(205, 116, 232)"></rect> 
<rect x="190.0" width="10.0" height="16" fill="rgb(255, 255, 255)"></rect> 
</svg>