<svg xmlns="http://www.w3.org/2000/svg" xmlns:xlink="http://www.w3.org/1999/xlink" width="200" height="16" shape-rendering="crispEdges"> 
<rect x="0.0" width="9.5238095238095" height="16" fill="rgb(30, 30, 30)"></rect> 
<rect x="9.5238095238095" width="9.5238095238095" height="16" fill="rgb(30, 30, 33)"></rect> 
<rect x="19.047619047619" width="9.5238095238095" height="16" fill="rgb(34, 34, 38)"></rect> 
<rect x="28.571428571429" width="9.5238095238095" height="16" fill="rgb(37, 37, 40)"></rect> 
<rect x="38.095238095238" width="9.5238095238095" height="16" fill="rgb(43, 43, 47)"></rect> 
<rect x="47.619047619048" width="9.5238095238095" height="16" fill="rgb(49, 49, 54)"></rect> 
<rect x="57.142857142857" width="9.5238095238095" height="16" fill="rgb(38, 79, 120)"></rect> 
<rect x="66.666666666667" width="9.5238095238095" height="16" fill="rgb(133, 133, 133)"></rect> 
<rect x="76.190476190476" width="9.5238095238095" height="16" fill="rgb(0, 151, 251)"></rect> 
<rect x="85.714285714286" width="9.5238095238095" height="16" fill="rgb(224, 108, 117)"></rect> 
<rect x="95.238095238095" width="9.5238095238095" height="16" fill="rgb(147, 147, 165)"></rect> 
<rect x="104.7619047619" width="9.5238095238095" height="16" fill="rgb(86, 182, 194)"></rect> 
<rect x="114.28571428571" width="9.5238095238095" height="16" fill="rgb(209, 154, 102)"></rect> 
<rect x="123.80952380952" width="9.5238095238095" height="16" fill="rgb(152, 195, 121)"></rect> 
<rect x="133.33333333333" width="9.5238095238095" height="16" fill="rgb(97, 175, 239)"></rect> 
<rect x="142.85714285714" width="9.5238095238095" height="16" fill="rgb(174, 175, 173)"></rect> 
<rect x="152.38095238095" width="9.5238095238095" height="16" fill="rgb(198, 120, 221)"></rect> 
<rect x="161.90476190476" width="9.5238095238095" height="16" fill="rgb(191, 191, 191)"></rect> 
<rect x="171.42857142857" width="9.5238095238095" height="16" fill="rgb(197, 197, 197)"></rect> 
<rect x="180.95238095238" width="9.5238095238095" height="16" fill="rgb(198, 198, 198)"></rect> 
<rect x="190.47619047619" width="9.5238095238095" height="16" fill="rgb(221, 221, 221)"></rect> 
</svg>